<?xml version="1.0" standalone="no"?>
<!DOCTYPE svg PUBLIC "-//W3C//DTD SVG 20010904//EN"
 "http://www.w3.org/TR/2001/REC-SVG-20010904/DTD/svg10.dtd">
<svg version="1.0" xmlns="http://www.w3.org/2000/svg"
 width="1280.000000pt" height="640.000000pt" viewBox="0 0 1280.000000 640.000000"
 preserveAspectRatio="xMidYMid meet">
<metadata>
Created by potrace 1.15, written by Peter Selinger 2001-2017
</metadata>
<g transform="translate(0.000000,640.000000) scale(0.100000,-0.100000)"
fill="#000000" stroke="none">
<path d="M11305 6120 c-145 -14 -616 -109 -724 -146 -25 -9 -122 -42 -216 -74
-216 -74 -542 -210 -855 -357 -248 -118 -594 -292 -640 -323 -14 -10 -70 -40
-125 -67 -103 -52 -318 -175 -345 -198 -8 -7 -20 -14 -26 -16 -10 -4 -236
-150 -549 -354 -158 -103 -511 -366 -845 -629 -124 -97 -252 -195 -285 -217
l-60 -41 -18 43 c-10 24 -23 49 -29 56 -8 10 -3 15 18 24 43 16 73 48 85 91
19 72 -36 144 -119 155 -32 4 -42 10 -42 24 0 10 55 91 123 180 67 89 131 176
142 194 11 17 50 70 86 116 36 46 72 95 79 108 7 14 49 71 94 127 136 171 263
340 318 421 29 43 67 96 85 117 18 22 33 43 33 47 0 4 26 43 58 86 32 43 85
116 117 163 32 47 75 105 97 129 25 29 38 53 38 73 0 32 70 208 83 208 11 0 1
-31 -39 -119 -19 -41 -33 -76 -30 -78 6 -6 57 66 76 110 26 59 31 130 8 135
-13 2 -35 -33 -94 -149 -109 -216 -202 -351 -753 -1099 -107 -146 -260 -353
-340 -460 -81 -107 -153 -206 -162 -219 -15 -24 -16 -23 -28 47 -7 40 -17 72
-21 72 -5 0 -28 -22 -52 -50 l-42 -49 -29 49 c-18 31 -33 47 -42 44 -16 -6
-35 -56 -35 -90 0 -44 -29 -25 -103 69 -64 80 -1007 1349 -1066 1434 -12 18
-29 56 -37 85 -31 105 -138 276 -160 255 -4 -4 -2 -29 5 -55 15 -56 104 -246
120 -256 6 -4 26 -31 45 -59 18 -29 74 -101 125 -162 51 -60 130 -166 175
-235 84 -127 156 -223 220 -295 49 -55 235 -305 332 -445 43 -63 97 -137 119
-165 58 -72 164 -231 181 -271 l14 -34 -28 0 c-16 0 -53 -12 -83 -27 -43 -23
-56 -35 -66 -64 -23 -72 17 -152 83 -165 32 -6 33 -6 19 -37 -7 -18 -17 -42
-21 -54 -8 -20 -18 -14 -134 89 -69 61 -163 137 -210 169 -47 32 -124 89 -173
126 -408 317 -492 378 -677 490 -63 38 -191 118 -285 178 -93 60 -206 129
-250 155 -44 26 -105 63 -135 82 -30 19 -127 74 -215 123 -88 48 -205 113
-260 145 -88 51 -300 156 -580 290 -330 157 -728 299 -1255 448 -301 85 -483
107 -815 99 -297 -8 -496 -41 -717 -120 -127 -45 -214 -95 -287 -163 -111
-103 -168 -227 -178 -389 -21 -345 187 -638 782 -1099 164 -127 286 -244 395
-376 87 -106 278 -296 310 -308 30 -11 182 -183 252 -287 80 -118 206 -244
279 -279 30 -14 79 -29 108 -33 l52 -6 -5 -46 c-3 -25 -9 -73 -12 -106 -4 -33
-13 -77 -20 -99 -41 -115 20 -341 130 -478 48 -60 54 -73 60 -130 12 -115 83
-236 221 -375 79 -80 127 -164 146 -254 6 -30 15 -70 19 -89 12 -47 91 -165
184 -275 42 -49 76 -95 76 -101 0 -7 25 -62 55 -123 94 -187 169 -251 382
-324 128 -45 168 -66 268 -137 44 -32 94 -64 110 -73 54 -27 193 -48 340 -52
61 -2 117 -9 144 -19 131 -48 399 -75 481 -48 19 6 94 20 165 31 168 26 265
57 395 128 134 74 231 164 318 296 55 84 72 121 113 247 26 82 64 222 83 312
64 288 73 321 131 463 164 403 195 526 215 860 11 178 28 346 35 354 3 2 5 -8
5 -23 0 -15 11 -60 25 -99 13 -40 30 -106 37 -147 19 -115 15 -494 -6 -685
-24 -211 -18 -524 13 -658 56 -242 129 -283 205 -116 86 186 96 419 40 859
-17 131 -19 463 -4 555 5 33 22 95 37 139 35 101 38 92 52 -184 18 -337 38
-444 151 -785 32 -99 96 -321 140 -494 45 -173 97 -350 115 -393 70 -166 233
-371 384 -482 147 -107 244 -147 425 -170 66 -9 153 -25 195 -37 101 -28 152
-21 298 42 196 84 295 97 444 58 69 -18 88 -19 128 -9 57 14 113 46 188 108
111 90 225 150 308 159 44 5 46 5 165 62 83 39 92 48 135 123 6 9 22 34 37 55
23 32 29 56 37 132 8 70 16 102 33 128 22 33 146 132 206 164 41 23 89 124
108 230 30 160 55 204 137 244 62 30 160 114 192 165 32 51 55 133 56 199 1
89 14 150 37 172 12 11 22 24 22 30 0 5 25 40 55 76 79 96 89 148 61 308 -20
113 -49 189 -92 241 -49 60 -41 74 38 74 85 0 173 15 213 37 111 61 186 134
262 258 93 150 201 275 239 275 27 0 98 52 183 134 92 89 148 159 205 254 51
85 131 170 246 260 52 42 122 99 155 127 33 28 81 63 107 78 49 28 336 320
359 365 7 15 24 40 37 56 43 53 130 224 148 291 47 169 13 457 -70 600 -41 68
-104 117 -258 198 -201 106 -242 116 -543 127 -273 11 -484 11 -600 0z m-6300
-197 c62 -129 76 -163 70 -163 -6 0 -125 240 -125 253 0 20 13 -1 55 -90z
m-3365 -46 c68 -23 281 -148 263 -154 -6 -2 -57 3 -113 12 -113 16 -155 35
-230 104 -37 33 -42 42 -30 51 21 14 37 12 110 -13z m9698 6 c-8 -42 -113 -78
-290 -99 -77 -8 -75 7 5 44 100 47 176 69 245 71 36 1 43 -2 40 -16z m-9214
-58 c33 -9 118 -44 190 -79 140 -69 215 -121 197 -139 -7 -7 -15 -6 -26 3 -9
7 -35 17 -58 21 -294 57 -397 92 -441 152 -21 28 -21 29 -2 43 25 18 67 18
140 -1z m8704 -3 c2 -7 -16 -33 -42 -57 -38 -37 -61 -49 -133 -70 -49 -14
-114 -35 -146 -46 -32 -11 -63 -19 -69 -17 -16 6 104 84 232 152 103 55 149
66 158 38z m-10225 -103 c27 -33 22 -97 -12 -150 -49 -76 -161 -169 -204 -169
-40 0 -86 39 -98 83 -14 52 -6 91 28 140 28 41 129 115 173 127 36 10 92 -5
113 -31z m11780 2 c75 -46 137 -136 137 -199 0 -54 -66 -112 -127 -112 -64 0
-206 116 -239 196 -13 31 -13 38 1 68 9 19 25 42 35 51 42 38 129 36 193 -4z
m-933 -34 c109 -32 166 -57 238 -106 109 -74 192 -183 228 -300 13 -43 19
-101 10 -101 -2 0 -45 16 -96 36 -176 67 -452 128 -805 175 -126 17 -221 22
-445 24 l-285 3 -24 42 c-13 22 -21 44 -18 46 12 12 281 97 407 129 115 29
177 42 370 79 14 2 95 3 180 1 127 -3 170 -8 240 -28z m-9437 -26 c170 -23
465 -76 475 -85 3 -3 1 -27 -4 -54 l-9 -47 -70 -7 c-38 -3 -149 -11 -245 -18
-397 -25 -690 -65 -959 -130 -90 -22 -184 -40 -208 -40 l-46 0 6 35 c10 61 49
127 122 203 88 93 179 138 332 162 96 15 431 4 606 -19z m1129 -118 c57 -20
107 -40 112 -44 10 -8 -23 -66 -53 -93 -19 -17 -24 -17 -123 9 -57 14 -107 30
-112 35 -5 5 2 22 18 41 15 17 30 45 33 60 3 16 9 29 14 29 4 0 54 -16 111
-37z m6548 -58 c17 -20 6 -73 -23 -107 -18 -23 -150 -88 -178 -88 -10 0 -59
82 -59 98 0 7 7 12 15 12 8 0 54 23 102 50 91 52 122 60 143 35z m-7234 -100
c-4 -14 -11 -72 -16 -128 -12 -122 -23 -137 -102 -137 -27 0 -57 -4 -67 -10
-10 -5 -137 -41 -282 -79 -264 -70 -442 -121 -574 -166 -175 -60 -380 -136
-389 -145 -22 -22 -75 -11 -116 26 -143 129 -82 429 91 451 24 3 58 14 74 23
33 20 356 88 565 119 261 39 555 66 744 70 l78 1 -6 -25z m8584 -24 c387 -52
740 -138 884 -214 64 -34 98 -78 118 -150 10 -39 9 -48 -15 -99 -45 -95 -121
-157 -225 -183 -41 -11 -78 -14 -105 -10 -23 4 -141 51 -262 105 -128 56 -305
125 -423 163 -188 62 -262 84 -481 142 -46 13 -95 32 -110 42 -25 18 -111 174
-111 201 0 28 49 32 310 28 193 -3 307 -10 420 -25z m-273 -345 c171 -50 303
-97 520 -187 208 -85 293 -125 293 -137 0 -19 -107 -102 -131 -102 -8 0 -39
-15 -69 -34 l-56 -35 -155 63 c-247 101 -370 170 -462 259 -77 75 -127 207
-78 207 11 0 72 -15 138 -34z m-8590 -22 c13 -35 -18 -95 -85 -163 -60 -60
-81 -73 -197 -125 -71 -32 -182 -89 -245 -126 -63 -37 -132 -74 -153 -81 -36
-13 -42 -12 -90 14 -29 15 -100 63 -159 107 -59 44 -112 80 -118 80 -26 0 -1
25 31 32 43 8 182 54 234 78 137 62 381 136 620 189 70 16 155 13 162 -5z
m1408 -73 c27 -12 63 -33 81 -46 17 -13 34 -22 36 -19 3 3 27 -7 53 -21 26
-14 55 -25 63 -25 13 0 414 -201 437 -220 6 -4 116 -63 245 -130 313 -162 703
-386 800 -459 47 -35 371 -239 444 -280 16 -9 37 -23 46 -31 10 -8 34 -28 54
-44 48 -36 35 -52 -25 -31 -24 9 -82 25 -129 36 -131 31 -508 135 -675 185
-318 97 -601 196 -1040 365 -126 48 -259 96 -295 105 -108 27 -196 78 -320
185 -79 67 -108 125 -117 229 -10 117 -14 111 157 196 92 45 94 45 185 5z
m5695 -41 c52 -6 126 -11 165 -13 l70 -2 13 -39 c7 -21 17 -83 24 -137 l11
-98 -31 -48 c-40 -62 -76 -97 -132 -126 -25 -13 -88 -47 -141 -75 -53 -29
-134 -65 -181 -81 -46 -16 -93 -33 -104 -39 -45 -24 -260 -102 -544 -197 -168
-57 -396 -135 -507 -174 -293 -102 -664 -200 -818 -217 -33 -3 -96 -17 -139
-30 -43 -14 -81 -22 -83 -20 -6 6 85 64 155 100 29 15 74 43 99 62 26 20 158
102 293 182 135 80 300 180 367 222 66 41 183 110 260 154 356 202 450 254
473 261 13 4 45 21 71 36 25 16 61 34 78 40 17 6 79 38 139 72 59 33 145 81
192 105 46 24 96 53 109 64 15 11 34 17 46 14 11 -3 63 -10 115 -16z m745
-115 c22 -7 157 -50 300 -95 368 -117 619 -228 748 -332 101 -81 137 -144 137
-242 0 -92 -51 -143 -154 -153 -61 -5 -249 44 -415 109 -132 52 -844 409 -891
447 -59 47 -54 59 68 182 120 121 106 116 207 84z m-7157 -52 c48 -31 128 -75
178 -99 98 -46 122 -65 102 -81 -7 -5 -47 -22 -88 -38 -244 -92 -578 -241
-920 -410 -146 -73 -296 -140 -332 -150 -66 -17 -67 -17 -110 4 -77 37 -116
131 -89 214 33 100 277 256 646 413 61 26 142 60 180 77 134 57 310 125 328
126 9 1 57 -24 105 -56z m470 -293 c69 -51 101 -104 148 -248 36 -112 32 -124
-58 -158 -299 -112 -419 -158 -460 -175 -26 -10 -54 -19 -63 -19 -8 0 -43 -11
-76 -25 -64 -27 -124 -39 -304 -57 -146 -15 -200 -6 -241 38 -45 47 -61 122
-45 209 6 36 15 75 20 88 17 44 519 271 786 355 184 58 197 61 216 48 9 -6 43
-31 77 -56z m6446 -2 c44 -17 240 -111 436 -208 l355 -177 -5 -79 c-5 -78 -23
-127 -54 -153 -24 -20 -153 -52 -232 -58 -106 -8 -270 39 -659 186 -132 50
-245 91 -252 91 -21 0 -80 58 -114 113 -18 28 -41 61 -51 73 -18 20 -18 21 3
40 23 21 60 43 228 134 63 35 126 66 140 71 41 13 118 1 205 -33z m979 -796
c9 -10 22 -33 28 -50 9 -26 8 -37 -5 -56 -26 -41 -56 -43 -88 -7 -30 33 -36
77 -18 112 14 24 61 25 83 1z m-8659 -34 c14 -23 0 -48 -36 -66 -34 -16 -58
-6 -58 26 0 54 67 82 94 40z m4048 -219 c-1 -13 6 -100 17 -194 l20 -170 -26
-37 c-14 -21 -45 -47 -70 -59 -39 -19 -49 -20 -91 -9 -62 15 -140 55 -296 152
-72 45 -166 97 -210 118 l-81 37 140 7 c77 3 178 12 225 19 108 17 251 75 311
127 49 43 65 46 61 9z m-3881 -35 c37 -19 36 -52 -3 -73 -24 -14 -28 -14 -47
3 -23 21 -27 56 -9 74 16 16 23 15 59 -4z m8323 -5 c14 -11 26 -28 26 -36 0
-48 -88 -74 -110 -33 -19 36 8 89 46 90 6 0 23 -9 38 -21z m-6264 -14 c49 -15
342 -55 402 -55 42 0 56 -14 36 -37 -32 -40 -231 -174 -392 -266 -85 -48 -156
-75 -498 -187 -147 -48 -298 -100 -337 -115 -46 -18 -78 -25 -95 -21 -14 3
-54 31 -88 61 -217 190 -266 230 -306 256 l-44 28 98 46 c326 153 586 240 839
281 55 8 120 20 145 24 57 11 182 4 240 -15z m4845 -22 c66 -22 185 -70 265
-105 80 -36 171 -75 202 -87 32 -13 69 -34 84 -47 32 -30 28 -51 -22 -141 -48
-87 -137 -168 -232 -211 -20 -10 -50 -26 -67 -37 -42 -29 -207 -28 -285 2
-165 62 -244 94 -316 128 -148 70 -180 84 -219 99 -138 50 -485 239 -594 325
-41 32 -22 48 66 56 43 4 110 11 148 15 96 13 233 29 335 39 47 5 182 8 300 7
l215 -1 120 -42z m-2280 -65 c86 -19 132 -22 332 -22 l233 0 -133 -68 c-312
-159 -438 -208 -534 -208 -63 0 -107 32 -123 88 -11 39 -14 223 -4 258 l6 22
61 -24 c34 -14 107 -34 162 -46z m-1659 -9 c136 -11 191 -29 327 -109 130 -75
137 -83 102 -106 -14 -9 -58 -58 -97 -108 -39 -50 -96 -118 -127 -151 -66 -72
-178 -223 -212 -285 -31 -57 -57 -74 -241 -155 -286 -127 -295 -129 -443 -130
-123 0 -133 2 -185 28 -96 49 -119 64 -163 104 -24 22 -56 48 -70 58 -31 20
-35 35 -8 35 132 0 322 246 387 501 9 35 20 72 25 81 9 16 317 238 349 251 17
7 193 0 356 -14z m2818 -85 c175 -113 186 -121 186 -146 0 -10 6 -29 14 -41 8
-12 17 -38 20 -57 8 -47 85 -197 140 -274 27 -38 86 -97 147 -147 157 -128
148 -117 108 -151 -65 -55 -167 -96 -277 -113 -138 -20 -154 -20 -299 15 -145
35 -254 83 -391 173 -137 90 -206 149 -435 373 -190 186 -200 197 -181 211 28
21 337 175 419 209 71 29 139 38 324 42 l73 2 152 -96z m-2245 -174 c46 -25
88 -54 93 -65 7 -15 -8 -66 -60 -210 -80 -220 -152 -437 -180 -546 -11 -42
-34 -103 -50 -135 l-30 -59 -99 -24 c-67 -16 -117 -22 -151 -19 -52 5 -138 42
-181 78 l-24 21 47 177 c51 189 70 235 149 351 85 127 382 485 396 479 3 -2
44 -23 90 -48z m916 -38 c123 -118 138 -149 399 -820 51 -132 49 -160 -17
-193 -50 -26 -205 -38 -259 -20 -102 34 -171 324 -203 845 -8 142 -18 262 -21
267 -17 29 22 -2 101 -79z m1611 52 c22 -9 156 -71 299 -139 238 -112 435
-194 467 -195 7 -1 26 -11 42 -24 36 -30 30 -54 -27 -100 -83 -68 -232 -125
-325 -126 -92 0 -288 149 -383 293 -54 81 -66 107 -100 204 -40 115 -40 115
27 87z m-3849 -43 c-7 -58 -88 -239 -140 -312 -67 -96 -113 -136 -207 -180
-47 -22 -98 -47 -113 -55 -38 -19 -59 -18 -148 5 -116 31 -215 84 -252 138
-34 48 -48 85 -38 100 3 5 80 33 171 62 200 65 576 210 645 250 28 16 58 29
69 30 16 1 18 -4 13 -38z m2589 -29 c70 -51 364 -362 364 -384 0 -12 6 -29 13
-37 33 -40 167 -409 167 -461 0 -37 -187 -108 -236 -90 -14 6 -56 10 -94 10
l-68 0 -43 118 c-52 144 -172 430 -273 656 -42 92 -76 172 -76 177 0 5 15 9
33 10 17 0 50 6 72 14 64 21 98 18 141 -13z m-920 -129 c-25 -468 -85 -703
-219 -849 -56 -61 -99 -79 -166 -70 -25 4 -63 7 -83 6 -28 -1 -38 4 -43 19
-14 46 173 693 269 926 l24 60 91 6 c51 3 97 11 103 17 27 27 31 9 24 -115z
m4040 -82 c93 -42 125 -162 72 -266 -41 -79 -145 -118 -216 -81 -92 48 -146
211 -97 294 40 67 155 92 241 53z m-7430 -12 c7 -6 25 -36 39 -66 14 -31 32
-61 39 -67 17 -13 36 -78 36 -121 0 -35 -29 -115 -42 -115 -5 0 -16 -7 -24
-15 -19 -19 -84 -19 -128 -1 -38 16 -87 72 -115 131 -44 95 -39 176 14 230 19
18 44 36 57 38 33 7 109 -1 124 -14z m4898 -291 c133 -96 248 -163 362 -211
42 -18 77 -36 78 -42 1 -12 -107 -48 -219 -74 -44 -11 -94 -26 -112 -35 -62
-33 -114 7 -148 114 -14 43 -97 253 -143 360 -8 20 35 -7 182 -112z m-2520
-97 c17 -59 -23 -198 -73 -255 -27 -31 -58 -37 -129 -26 -71 11 -191 63 -230
101 -32 29 -22 38 98 88 52 22 140 60 195 85 55 24 107 44 115 43 8 -1 19 -17
24 -36z m4679 18 c15 -7 29 -20 32 -31 4 -10 10 -18 15 -18 13 0 30 -59 30
-107 0 -53 -25 -179 -45 -226 -42 -102 -122 -130 -160 -57 -8 16 -37 57 -64
92 -96 126 -116 191 -81 263 16 34 35 54 74 76 46 27 57 30 112 25 33 -3 73
-10 87 -17z m-6655 2 c9 -5 25 -12 35 -15 35 -11 61 -93 62 -191 0 -85 -2 -93
-32 -140 -18 -28 -52 -70 -77 -94 l-45 -44 -58 22 c-123 47 -119 45 -158 128
l-36 78 26 55 c35 71 116 180 135 180 8 1 26 7 40 15 29 16 82 19 108 6z m464
-350 c33 -29 33 -30 32 -118 -2 -102 -19 -196 -40 -213 -7 -7 -14 -25 -14 -40
0 -56 -92 -229 -122 -230 -9 0 -47 27 -84 59 -37 33 -93 74 -125 91 -33 17
-64 40 -70 52 -14 26 -3 84 22 120 11 14 26 46 35 70 50 142 163 237 281 238
44 0 58 -5 85 -29z m5661 10 c65 -33 137 -94 173 -147 51 -74 94 -204 94 -284
0 -94 -6 -107 -59 -133 -25 -13 -72 -38 -105 -55 -32 -18 -69 -32 -83 -32 -85
0 -137 88 -183 314 -27 130 -27 254 0 305 11 22 25 41 32 44 29 12 96 6 131
-12z m-5224 -106 c16 -8 33 -25 36 -37 4 -13 18 -46 31 -74 88 -187 31 -490
-117 -629 -62 -58 -85 -58 -208 -1 -107 49 -122 68 -123 149 -1 64 33 164 119
352 36 77 69 160 74 184 10 51 22 68 52 75 35 7 105 -2 136 -19z m4768 10 c53
-16 113 -70 113 -102 0 -8 9 -30 20 -48 34 -55 92 -245 120 -395 20 -105 -19
-159 -167 -230 -124 -59 -107 -67 -182 85 -88 178 -147 413 -139 554 4 82 25
112 94 136 51 18 79 18 141 0z m-479 -266 c67 -33 129 -127 173 -264 29 -89
30 -210 3 -285 -25 -69 -90 -142 -151 -167 -56 -24 -226 -58 -246 -50 -8 3
-18 18 -21 33 -4 15 -20 43 -36 61 -46 52 -130 357 -130 470 0 62 12 77 75 93
74 19 172 66 211 100 41 36 63 37 122 9z m-3797 -33 c19 -14 68 -45 110 -70
143 -85 167 -136 126 -265 -14 -43 -33 -129 -42 -191 -17 -123 -24 -142 -61
-166 -26 -18 -75 -16 -219 6 -113 17 -146 31 -193 80 -72 74 -75 80 -57 130 8
23 24 96 35 162 11 65 29 142 40 171 53 140 173 206 261 143z m3151 -145 c25
-23 138 -254 138 -282 0 -11 12 -47 26 -81 37 -89 31 -156 -20 -233 -61 -93
-143 -117 -235 -70 -41 20 -54 34 -75 79 -53 111 -58 229 -16 351 11 32 25 88
30 124 15 94 18 101 53 117 30 13 83 10 99 -5z m-2610 -13 c34 -19 48 -39 89
-121 63 -124 79 -188 79 -307 -1 -118 -26 -191 -80 -228 -30 -20 -44 -23 -100
-20 -76 4 -139 32 -157 68 -41 87 -48 117 -46 190 3 127 68 314 139 404 16 20
31 36 33 36 2 0 21 -10 43 -22z m491 -269 c30 -37 17 -129 -26 -176 -43 -48
-150 -13 -149 48 0 40 50 139 75 149 32 14 79 3 100 -21z m1754 -68 c14 -20
23 -49 23 -70 0 -64 -37 -79 -88 -36 -36 30 -48 74 -31 107 26 49 63 49 96 -1z"/>
</g>
</svg>
